External Loads File
version=1
nRows=62
nColumns=13
Range=5.000000e-03-10 seconds
endheader
time 	forceRightX 	forceRightY 	forceRightZ 	pointRightX 	pointRightY 	pointRightZ 	forceLeftX 	forceLeftY 	forceLeftZ 	pointLeftX 	pointLeftY 	pointLeftZ 		
7.505000 -37.355599 744.022287 -0.000000 0.438582 0.315721 -0.109289 -25.674912 -128.302030 -0.000000 0.140364 0.281524 -0.356056
7.510000 -35.438666 774.681512 -0.000000 0.437999 0.304381 -0.108915 -15.451007 -115.297507 -0.000000 0.140934 0.292069 -0.355995
7.515000 -31.164785 804.534143 -0.000000 0.436699 0.293092 -0.108625 -6.871732 -104.319517 -0.000000 0.142148 0.302664 -0.355932
7.520000 -24.240778 833.540419 -0.000000 0.435124 0.281985 -0.107819 -0.189639 -95.188860 -0.000000 0.144000 0.313317 -0.355844
7.525000 -14.076949 861.409635 -0.000000 0.432628 0.271027 -0.108171 4.457856 -87.626867 -0.000000 0.146479 0.323946 -0.355655
7.530000 -1.872564 887.696582 -0.000000 0.429842 0.260480 -0.108157 7.239106 -81.281978 -0.000000 0.149562 0.334399 -0.355451
7.535000 14.520698 911.996576 -0.000000 0.426499 0.250130 -0.108237 8.108220 -75.824464 -0.000000 0.153158 0.345186 -0.355346
7.540000 31.934417 933.994038 -0.000000 0.422557 0.239980 -0.108422 7.572729 -70.956917 -0.000000 0.157363 0.355246 -0.355366
7.545000 51.009390 953.428814 -0.000000 0.418180 0.230132 -0.108450 5.812841 -66.528908 -0.000000 0.162068 0.365089 -0.355052
7.550000 72.682957 969.929863 -0.000000 0.413154 0.220533 -0.108340 2.969427 -62.467810 -0.000000 0.167332 0.374950 -0.354995
7.555000 95.251657 983.232204 -0.000000 0.407604 0.211273 -0.108295 -0.691196 -58.724821 -0.000000 0.173081 0.384550 -0.354879
7.560000 117.502150 993.118077 -0.000000 0.401633 0.202463 -0.108355 -4.981903 -55.297755 -0.000000 0.179368 0.393699 -0.354824
7.565000 139.078900 999.352804 -0.000000 0.395253 0.194125 -0.108473 -9.793493 -52.204446 -0.000000 0.186099 0.402455 -0.354634
7.570000 160.188640 1001.658128 -0.000000 0.388440 0.186258 -0.108520 -15.079519 -49.451970 -0.000000 0.193400 0.410788 -0.354547
7.575000 180.352536 999.825035 -0.000000 0.381265 0.178792 -0.108437 -20.804214 -47.024491 -0.000000 0.201091 0.418726 -0.354313
7.580000 200.303930 993.321298 -0.000000 0.373830 0.171783 -0.108399 -27.024341 -44.799658 -0.000000 0.209715 0.426125 -0.355612
7.585000 216.458129 982.423341 -0.000000 0.365959 0.165258 -0.108263 -33.580496 -42.659157 -0.000000 0.217677 0.433354 -0.353907
7.590000 231.689479 966.172090 -0.000000 0.358026 0.159226 -0.108035 -40.511971 -40.210854 -0.000000 0.226502 0.440350 -0.353690
7.595000 244.464461 944.627100 -0.000000 0.349847 0.153976 -0.107823 -47.552353 -37.146520 -0.000000 0.235958 0.446233 -0.354271
7.600000 253.537355 917.954969 -0.000000 0.341396 0.149013 -0.107604 -54.409028 -33.214418 -0.000000 0.245065 0.451368 -0.353369
7.605000 261.163841 885.384421 -0.000000 0.332685 0.144618 -0.107054 -60.927588 -28.027361 -0.000000 0.254527 0.456170 -0.352984
7.610000 265.635784 847.186337 -0.000000 0.323811 0.140922 -0.106990 -66.808105 -21.467188 -0.000000 0.263880 0.460361 -0.353010
7.615000 267.878948 802.927029 -0.000000 0.314999 0.137829 -0.106770 -71.817608 -13.278277 -0.000000 0.273651 0.463910 -0.352903
7.620000 267.186952 752.890151 -0.000000 0.306118 0.135343 -0.106513 -75.670525 -3.380084 -0.000000 0.283440 0.466707 -0.352936
7.625000 263.558326 697.495307 -0.000000 0.297237 0.133575 -0.106378 -78.125588 8.254895 -0.000000 0.293280 0.468682 -0.353057
7.630000 257.327889 637.407209 -0.000000 0.288164 0.132317 -0.106209 -78.980428 21.558810 -0.000000 0.303051 0.470051 -0.353348
7.635000 248.276040 573.847946 -0.000000 0.279148 0.132228 -0.106032 -78.117613 36.296767 -0.000000 0.312714 0.470897 -0.353622
7.640000 237.062601 507.959985 -0.000000 0.270006 0.132380 -0.105840 -75.486478 52.333154 -0.000000 0.322291 0.471197 -0.353900
7.645000 223.757727 441.349457 -0.000000 0.260744 0.133612 -0.105714 -71.193236 69.556127 -0.000000 0.331403 0.471101 -0.354578
7.650000 209.415273 375.254576 -0.000000 0.251360 0.135461 -0.105469 -65.336664 88.203933 -0.000000 0.340338 0.470107 -0.354593
7.655000 194.340199 311.172338 -0.000000 0.242038 0.138139 -0.105286 -58.179826 108.627841 -0.000000 0.348829 0.467935 -0.354975
7.660000 178.948824 250.214465 -0.000000 0.232756 0.141363 -0.105226 -50.035288 131.341127 -0.000000 0.357041 0.465529 -0.355698
7.665000 163.482023 193.121519 -0.000000 0.223578 0.145237 -0.105148 -41.328665 156.821947 -0.000000 0.364643 0.462588 -0.356142
7.670000 148.157199 140.154990 -0.000000 0.214864 0.149698 -0.105219 -32.537858 185.391922 -0.000000 0.371845 0.459094 -0.356635
7.675000 133.079907 91.209010 -0.000000 0.206388 0.154647 -0.105207 -24.148347 217.098087 -0.000000 0.378448 0.455015 -0.357172
7.680000 118.171748 46.029988 -0.000000 0.198462 0.160132 -0.105158 -16.702818 251.649501 -0.000000 0.384631 0.450271 -0.357879
7.685000 103.283189 4.385997 -0.000000 0.191066 0.165855 -0.104988 -10.946548 288.438371 -0.000000 0.390258 0.444921 -0.358631
7.690000 88.308800 -34.163834 -0.000000 0.184120 0.172252 -0.104827 -6.968370 326.654872 -0.000000 0.395528 0.438934 -0.359129
7.695000 73.150146 -69.690564 -0.000000 0.177679 0.178834 -0.104590 -5.608065 365.370330 -0.000000 0.400521 0.432601 -0.359226
7.700000 57.720084 -102.362973 -0.000000 0.171797 0.185827 -0.104318 -7.020151 403.772914 -0.000000 0.405132 0.425612 -0.359292
7.705000 41.908849 -132.156805 -0.000000 0.166426 0.193212 -0.103999 -11.134678 441.301113 -0.000000 0.409422 0.417913 -0.359518
7.710000 25.754901 -158.796335 -0.000000 0.161556 0.200918 -0.103715 -17.803522 477.711491 -0.000000 0.413422 0.409632 -0.359654
7.715000 9.402273 -181.826513 -0.000000 0.157197 0.208919 -0.103568 -26.367749 513.020515 -0.000000 0.417204 0.400787 -0.359599
7.720000 -6.770685 -200.692592 -0.000000 0.153494 0.217225 -0.103506 -36.058258 547.331223 -0.000000 0.420683 0.391395 -0.359584
7.725000 -22.357243 -214.905613 -0.000000 0.150300 0.225822 -0.103335 -45.593416 580.734473 -0.000000 0.423872 0.381499 -0.359792
7.730000 -36.789709 -224.184595 -0.000000 0.146994 0.234692 -0.103958 -53.915992 613.259217 -0.000000 0.426512 0.371330 -0.359913
7.735000 -49.094020 -228.631086 -0.000000 0.144891 0.243818 -0.103926 -61.288041 644.822419 -0.000000 0.428852 0.360969 -0.359872
7.740000 -59.022292 -228.538212 -0.000000 0.143238 0.253365 -0.104030 -66.525573 675.522286 -0.000000 0.430731 0.350528 -0.359775
7.745000 -66.369882 -224.415163 -0.000000 0.142041 0.263302 -0.104199 -68.945647 705.455190 -0.000000 0.432216 0.339832 -0.359517
7.750000 -70.553185 -217.109854 -0.000000 0.141456 0.273141 -0.104275 -69.919634 734.518182 -0.000000 0.433251 0.328995 -0.359439
7.755000 -72.185132 -207.287585 -0.000000 0.141340 0.283489 -0.104330 -67.879300 762.926477 -0.000000 0.433670 0.317973 -0.359267
7.760000 -71.315129 -195.901257 -0.000000 0.141792 0.293813 -0.104527 -63.851570 790.696983 -0.000000 0.433655 0.306715 -0.359510
7.765000 -68.263553 -183.831391 -0.000000 0.143065 0.304089 -0.104620 -58.844588 817.882267 -0.000000 0.433230 0.295585 -0.359656
7.770000 -63.887759 -171.612508 -0.000000 0.144547 0.314574 -0.104958 -52.073640 844.661726 -0.000000 0.432291 0.284567 -0.359259
7.775000 -58.600120 -159.699885 -0.000000 0.146764 0.324871 -0.105237 -44.658148 871.073585 -0.000000 0.430664 0.273721 -0.358951
7.780000 -53.068500 -148.221868 -0.000000 0.149736 0.335066 -0.105409 -35.954704 897.257930 -0.000000 0.428484 0.262991 -0.358590
7.785000 -47.689367 -137.281317 -0.000000 0.153171 0.345202 -0.105653 -25.868019 923.278413 -0.000000 0.425606 0.252437 -0.358317
7.790000 -42.770424 -127.021695 -0.000000 0.157317 0.355220 -0.105985 -14.317683 949.118077 -0.000000 0.422189 0.242083 -0.358117
7.795000 -38.633828 -117.632150 -0.000000 0.162011 0.365126 -0.106184 -1.084456 974.621289 -0.000000 0.418278 0.231857 -0.357865
7.800000 -35.468280 -109.323628 -0.000000 0.167228 0.374792 -0.106458 12.667801 999.516659 -0.000000 0.413698 0.222149 -0.357621
7.805000 -33.694981 -102.129472 -0.000000 0.173092 0.384212 -0.106759 27.951366 1023.414782 -0.000000 0.408579 0.212765 -0.357357
7.810000 -33.496784 -96.028604 -0.000000 0.179252 0.393366 -0.107204 44.739175 1045.667886 -0.000000 0.402961 0.203638 -0.357075
